<svg width="32" height="32" viewBox="0 0 32 32" fill="none" xmlns="http://www.w3.org/2000/svg">
<rect x="7.31787" y="-2.6665" width="2.36782" height="51.8328" transform="rotate(45 7.31787 -2.6665)" fill="#FFE699"/>
<rect x="12.6455" y="-2.6665" width="2.36782" height="51.8328" transform="rotate(45 12.6455 -2.6665)" fill="#FFE699"/>
<rect x="17.9731" y="-2.6665" width="2.36782" height="51.8328" transform="rotate(45 17.9731 -2.6665)" fill="#FFE699"/>
<rect x="23.3008" y="-2.6665" width="2.36782" height="51.8328" transform="rotate(45 23.3008 -2.6665)" fill="#FFE699"/>
<rect x="28.6284" y="-2.6665" width="2.36782" height="51.8328" transform="rotate(45 28.6284 -2.6665)" fill="#FFE699"/>
<rect x="33.9556" y="-2.6665" width="2.36782" height="51.8328" transform="rotate(45 33.9556 -2.6665)" fill="#FFE699"/>
<rect x="39.2832" y="-2.6665" width="2.36782" height="51.8328" transform="rotate(45 39.2832 -2.6665)" fill="#FFE699"/>
<rect x="44.6108" y="-2.6665" width="2.36782" height="51.8328" transform="rotate(45 44.6108 -2.6665)" fill="#FFE699"/>
<rect x="49.9385" y="-2.6665" width="2.36782" height="51.8328" transform="rotate(45 49.9385 -2.6665)" fill="#FFE699"/>
<rect x="55.2661" y="-2.6665" width="2.36782" height="51.8328" transform="rotate(45 55.2661 -2.6665)" fill="#FFE699"/>
</svg>
